<svg xmlns="http://www.w3.org/2000/svg" xmlns:xlink="http://www.w3.org/1999/xlink" width="949" height="568.653" xmlns:v="https://vecta.io/nano"><style><![CDATA[.B{fill:#2f2e41}.C{fill:#ccc}.D{fill:#ffb8b8}.E{fill:#aa63f8}.F{fill:#e6e6e6}.G{fill:#a0616a}]]></style><path d="M368.454 509.5a31.52 31.52 0 0 1-30.435-5.361c-10.66-8.947-14.002-23.687-16.721-37.336l-8.043-40.37 16.84 11.595c12.11 8.339 24.493 16.944 32.878 29.023s12.045 28.566 5.308 41.635" class="F"/><path d="M367.015 558.377c1.704-12.415 3.457-24.99 2.261-37.538-1.062-11.144-4.462-22.029-11.383-30.953a51.49 51.49 0 0 0-13.211-11.971c-1.321-.834-2.537 1.26-1.222 2.09a48.95 48.95 0 0 1 19.363 23.363c4.216 10.722 4.893 22.411 4.166 33.801-.439 6.888-1.37 13.731-2.309 20.565-.153.641.216 1.292.845 1.489a1.22 1.22 0 0 0 1.489-.845z" fill="#f2f2f2"/><path d="M350.598 536.408a23.2 23.2 0 0 1-20.215 10.433c-10.233-.486-18.764-7.628-26.444-14.408l-22.715-20.056 15.034-.719c10.811-.517 21.901-1 32.199 2.334s19.794 11.358 21.677 22.016" class="F"/><path d="M371.832 565.513c-8.204-14.516-17.719-30.648-34.722-35.805-4.728-1.429-9.685-1.941-14.604-1.508-1.551.134-1.163 2.524.384 2.39 8.247-.685 16.477 1.493 23.306 6.166 6.572 4.473 11.688 10.692 16.019 17.287 2.653 4.039 5.029 8.25 7.405 12.455.76 1.344 2.979.374 2.211-.986z" fill="#f2f2f2"/><path d="M591.713 274.724L412.86 422.958a11.03 11.03 0 0 1-15.508-1.452l-75.395-90.968a11.03 11.03 0 0 1 1.452-15.508l178.853-148.234a11.03 11.03 0 0 1 15.509 1.452l75.395 90.968a11.03 11.03 0 0 1-1.452 15.508z" class="C"/><path d="M584.546 270.26L409.804 415.087a5.68 5.68 0 0 1-7.989-.748l-71.987-86.857a5.68 5.68 0 0 1 .748-7.989l174.742-144.827a5.68 5.68 0 0 1 7.989.748l71.987 86.857a5.68 5.68 0 0 1-.748 7.989z" fill="#fff"/><path d="M592.601 300.577l-35.94-3.364 25.723-20.245 13.857 16.719a4.15 4.15 0 0 1 .482 4.661 4.28 4.28 0 0 1-1.051 1.302 4.16 4.16 0 0 1-3.07.926zm-72.173-64.375l-88.399 73.265a5.34 5.34 0 1 1-6.815-8.223l88.399-73.265a5.34 5.34 0 1 1 6.815 8.223zm-43.264 6.379l-59.618 49.411a5.34 5.34 0 1 1-6.815-8.223l59.618-49.411a5.34 5.34 0 1 1 6.815 8.223z" class="C"/><circle cx="384.787" cy="326.947" r="16.688" class="E"/><g class="F"><circle cx="517.532" cy="288.156" r="5.34"/><circle cx="531.923" cy="276.229" r="5.34"/><circle cx="546.313" cy="264.302" r="5.34"/></g><use xlink:href="#B" class="D"/><use xlink:href="#C" class="B"/><use xlink:href="#B" x="-44" class="D"/><g class="B"><use xlink:href="#C" x="-44"/><path d="M429.501 541.745h-.002l-10.426-.003c-2.425.008-4.417-1.914-4.495-4.338l-.328-9.121c-2.635-72.94-5.361-148.364 11.517-182.265l.132-.267 55.88-2.022 11.219 102.911a44.62 44.62 0 0 1-.52 13.164l-14.83 78.148a4.5 4.5 0 0 1-4.597 3.658l-11.71-.38a4.5 4.5 0 0 1-4.302-4.943l9.199-72.279a24.7 24.7 0 0 0-.835-9.284l-11.44-39.994a1.5 1.5 0 0 0-2.928.206l-17.077 122.928a4.52 4.52 0 0 1-4.457 3.881z"/></g><circle cx="436.183" cy="216.281" r="24.561" class="D"/><path d="M479.16 351.326h-50.823a4.5 4.5 0 0 1-4.453-5.15l2.511-17.196-14.744-40.554c-3.083-8.479-2.164-17.898 2.499-25.622s12.57-12.923 21.51-14.144h0a29.73 29.73 0 0 1 31.021 16.815l3.239 6.891 13.666 73.641a4.5 4.5 0 0 1-4.425 5.32z" class="E"/><path d="M371.874 394.462c3.097-.719 5.716-2.773 7.153-5.609s1.544-6.163.292-9.085l39.602-89.472-22.655-5.706-31.804 89.742c-4.877 2.483-7.126 8.221-5.235 13.357s7.324 8.045 12.647 6.773z" class="D"/><path d="M413.56 306.297l-22.033-10.314c-1.269-.594-2.216-1.71-2.595-3.059s-.153-2.795.621-3.963l13.39-20.223a13.38 13.38 0 0 1 17.787-6.352 13.38 13.38 0 0 1 6.411 17.766l-6.924 23.163c-.402 1.342-1.367 2.442-2.646 3.015s-2.742.56-4.011-.033z" class="E"/><path d="M537.075 164.224c.968 3.028.545 6.33-1.155 9.016s-4.503 4.482-7.654 4.903l-56.569 79.835-16.503-16.536 60.794-73.275c-.365-5.461 3.412-10.331 8.792-11.337s10.661 2.171 12.294 7.394z" class="D"/><path d="M484.779 248.607a4.81 4.81 0 0 1-1.235 3.816l-16.349 17.809a13.38 13.38 0 0 1-22.195-14.939l10.512-21.858c.607-1.262 1.734-2.198 3.086-2.563s2.796-.123 3.956.662l20.142 13.643a4.81 4.81 0 0 1 2.083 3.428z" class="E"/><path d="M468.455 206a25.26 25.26 0 0 0-.918-6.576c-3.957-14.622-18.565-23.399-33.225-21.196a31.7 31.7 0 0 0-8.769-1.228h0c-15.59 0-28.853 11.362-31.246 26.767L382.455 280h64l10.334-66.526c.384-2.472.474-4.981.269-7.474z" class="B"/><path d="M548 568.653H337a1 1 0 1 1 0-2h211a1 1 0 1 1 0 2z" class="C"/><g class="G"><path d="M760.57 77.668c2.962-.285 5.899.757 8.019 2.845s3.207 5.008 2.967 7.974l32.707 14.395-15.602 10.071-28.667-15.214a10.11 10.11 0 0 1 .576-20.071z"/><circle cx="892.502" cy="35.15" r="24.561"/><path d="M848.05 385.364l-12.26-.001-5.832-47.288 18.094.001-.002 47.288z"/></g><use xlink:href="#D" class="B"/><path d="M899.05 385.364l-12.26-.001-5.832-47.288 18.094.001-.002 47.288z" class="G"/><g class="B"><use xlink:href="#D" x="51"/><path d="M898.469 375.292c-.183 0-.367-.012-.549-.034l-17.946-2.209c-2.17-.264-3.835-2.052-3.944-4.235L870.8 251.05a1.5 1.5 0 0 0-2.857-.554l-13.434 44.784-2.767 71.937a4.5 4.5 0 0 1-5.023 4.295l-15.541-1.829c-2.303-.264-4.025-2.239-3.973-4.557l1.319-67.714 10.529-106.292.47.018 64.022 2.468-.577 177.201c-.009 2.48-2.021 4.485-4.501 4.485z"/></g><g fill="#3f3d56"><path d="M901.12 203.318c-.039 0-.078 0-.117-.001l-64.479-1.689a4.5 4.5 0 0 1-4.341-5.104l12.39-91.191c1.565-12.453 8.358-23.651 18.68-30.792 9.083-6.253 20.424-8.275 31.108-5.547 22.506 5.703 36.008 29.87 30.097 53.872l-18.968 77.029c-.504 2.005-2.302 3.415-4.37 3.424z"/><path d="M816.53 130.904a21.82 21.82 0 0 1-11.964-3.555l-37.602-24.67a4.5 4.5 0 0 1-.799-6.856l5.665-5.98c1.264-1.342 3.221-1.773 4.932-1.087l42.002 16.726 38.909-27.786c4.961-3.542 11.493-3.991 16.891-1.159s8.743 8.46 8.649 14.555-3.611 11.618-9.094 14.282l-48.088 23.357a21.74 21.74 0 0 1-9.5 2.174z"/></g><path d="M901.012 58.638c4.19.989 9.245 1.749 12.24-1.345a12.51 12.51 0 0 0 1.416-1.89l3.915-5.977c2.999-4.579 6.051-9.277 7.321-14.602A23.74 23.74 0 0 0 907.997 6.15c-5.846-1.309-11.566-3.561-17.542-3.15s-12.985.276-18-3c.313 1.46 2.003 7.913 2.003 7.913s-7.541 6.919-9.054 8.644c4.012-1.779 8.622-1.597 12.483.491s6.534 5.848 7.24 10.18c.428 2.626.177 5.538 1.737 7.693 1.484 2.05 4.145 2.768 6.382 3.952 6.662 3.795 9.567 11.877 6.847 19.045z" class="B"/><path d="M871.523 212.115H667.934c-5.329-.006-9.647-4.324-9.653-9.653V98.912c.006-5.329 4.324-9.647 9.653-9.653h203.589c5.329.006 9.647 4.324 9.653 9.653v103.55c-.006 5.329-4.324 9.647-9.653 9.653z" class="C"/><path d="M869.183 205.095H670.274a4.98 4.98 0 0 1-4.973-4.973v-98.87a4.98 4.98 0 0 1 4.973-4.973h198.909a4.98 4.98 0 0 1 4.973 4.973v98.87a4.98 4.98 0 0 1-4.973 4.973z" fill="#fff"/><g class="C"><use xlink:href="#E"/><path d="M844.965 146.253H744.34a4.68 4.68 0 1 1 0-9.36h100.625a4.68 4.68 0 1 1 0 9.36zm-32.762-19.891H744.34a4.68 4.68 0 1 1 0-9.36h67.863a4.68 4.68 0 1 1 0 9.36z"/></g><circle cx="702.686" cy="131.628" r="14.626" class="E"/><g class="F"><circle cx="813.955" cy="179.692" r="4.68"/><circle cx="830.336" cy="179.692" r="4.68"/><circle cx="846.716" cy="179.692" r="4.68"/></g><path d="M868.371 199.8c.327-2.958 1.948-5.619 4.426-7.267s5.558-2.114 8.413-1.273l20.783-29.069 6.665 17.332-20.758 24.948a10.11 10.11 0 0 1-19.529-4.671z" class="G"/><path d="M892.178 198.232c-.327.027-.656.019-.981-.025a4.49 4.49 0 0 1-3.205-2.06l-4.392-6.968a4.48 4.48 0 0 1 .168-5.048l26.602-36.553-17.291-44.576c-3.213-8.16.709-17.389 8.813-20.739h0c4.457-1.869 9.517-1.645 13.791.612s7.313 6.309 8.283 11.044l10.728 52.373c1.518 7.512-1.005 15.271-6.651 20.454l-33.21 30.325c-.732.67-1.666 1.078-2.655 1.161z" fill="#3f3d56"/><path d="M948 399.653H737a1 1 0 1 1 0-2h211a1 1 0 1 1 0 2zM256.618 150.776H53.028c-5.329-.006-9.647-4.324-9.653-9.653V37.573c.006-5.329 4.324-9.647 9.653-9.653h203.589c5.329.006 9.647 4.324 9.653 9.653v103.55c-.006 5.329-4.324 9.647-9.653 9.653z" class="C"/><path d="M254.277 143.756H55.368a4.98 4.98 0 0 1-4.973-4.973v-98.87a4.98 4.98 0 0 1 4.973-4.973h198.909a4.98 4.98 0 0 1 4.973 4.973v98.87a4.98 4.98 0 0 1-4.973 4.973z" fill="#fff"/><g class="C"><use xlink:href="#E" x="-614.906" y="-61.339"/><path d="M230.059 84.915H129.434a4.68 4.68 0 1 1 0-9.36h100.625a4.68 4.68 0 1 1 0 9.36zm-32.761-19.891h-67.863a4.68 4.68 0 1 1 0-9.36h67.863a4.68 4.68 0 1 1 0 9.36z"/></g><circle cx="87.78" cy="70.289" r="14.626" class="E"/><g class="F"><circle cx="199.049" cy="118.353" r="4.68"/><circle cx="215.43" cy="118.353" r="4.68"/><circle cx="231.811" cy="118.353" r="4.68"/></g><g class="D"><path d="M248.174 17.971c-2.8 1.008-5.01 3.204-6.035 5.998s-.759 5.898.725 8.478l-23.42 26.99 18.409 2.439 19.418-26.004a10.11 10.11 0 0 0-9.097-17.901zM91.798 28.777c1.011 2.799.731 5.902-.766 8.474s-4.056 4.349-6.989 4.853L78.215 77.36 64.587 64.745 72.212 33.2a10.11 10.11 0 0 1 19.586-4.423z"/><use xlink:href="#B" x="-332.799" y="-170.85"/></g><use xlink:href="#C" x="-332.799" y="-170.85" class="B"/><use xlink:href="#B" x="-395.799" y="-170.85" class="D"/><use xlink:href="#C" x="-395.799" y="-170.85" class="B"/><circle cx="125.84" cy="37.947" r="24.561" class="D"/><g class="B"><path d="M122.896 369.655l-2.031-129.406a1.5 1.5 0 0 0-2.959-.324L84.615 366.5c-.516 2.087-2.422 3.529-4.571 3.459l-18.29-.782a4.5 4.5 0 0 1-4.272-5.061l28.307-163.117 79.195 3.746-16.872 165.18a4.52 4.52 0 0 1-4.487 4.166h-16.229a4.52 4.52 0 0 1-4.5-4.437z"/><path d="M185.04 215.684l-114.178-9.37a4.5 4.5 0 0 1-3.864-6.015l17.981-49.712 1.035-59.003a16.18 16.18 0 0 1 16.667-15.891l7.593-6.883h27.82l2.422 3.176 19.357 2.975c7.079 1.117 12.593 6.735 13.58 13.833l16.414 121.805a4.5 4.5 0 0 1-4.454 5.101c-.124 0-.249-.005-.374-.016z"/><path d="M162.794 80.681l48.684-14.264 22.033-29.008a4.5 4.5 0 0 1 5.352-1.416l13.756 5.88a4.5 4.5 0 0 1 2.119 6.403l-16.466 28.256c-2.681 4.622-6.762 8.272-11.654 10.423l-57.261 25.313zm-93.401 21.337c-5.917-4.263-9.179-11.305-8.604-18.575l2.136-28.308a4.51 4.51 0 0 1 4.488-4.161h.04l16.132.144a4.5 4.5 0 0 1 4.376 5.365l-2.993 15.271 21.36 9.025-17.987 34.993zm70.735-93.522s-25.685-13.83-39.685 2.492 5.334 41.848 5.334 41.848l27.548 3.474s1-18.726 7.559-18.363 26.929-23.266-.756-29.451z"/></g><path d="M212 398.653H1a1 1 0 1 1 0-2h211a1 1 0 1 1 0 2z" class="C"/><defs ><path id="B" d="M461.198 556.214l12.26-.001 5.832-47.288-18.094.001.002 47.288z"/><path id="C" d="M458.071 552.211l24.145-.001c4.081 0 7.994 1.621 10.88 4.506s4.507 6.799 4.507 10.88v.5l-39.531.001z"/><path id="D" d="M851.176 397.248l-39.531-.001v-.5c0-4.081 1.621-7.994 4.507-10.88s6.799-4.506 10.88-4.506l24.145.001z"/><path id="E" d="M857.664 230.057l-22.37-22.37 28.68.725v19.032a3.64 3.64 0 0 1-2.282 3.415 3.75 3.75 0 0 1-1.438.291c-.975-.003-1.907-.396-2.59-1.092z"/></defs></svg>